<?xml version="1.0" encoding="UTF-8" standalone="no"?>
<svg
   xmlns:dc="http://purl.org/dc/elements/1.1/"
   xmlns:cc="http://creativecommons.org/ns#"
   xmlns:rdf="http://www.w3.org/1999/02/22-rdf-syntax-ns#"
   xmlns:svg="http://www.w3.org/2000/svg"
   xmlns="http://www.w3.org/2000/svg"
   xmlns:sodipodi="http://sodipodi.sourceforge.net/DTD/sodipodi-0.dtd"
   xmlns:inkscape="http://www.inkscape.org/namespaces/inkscape"
   viewBox="0 0 200 159.66"
   height="159.66"
   width="200"
   xml:space="preserve"
   id="svg2"
   version="1.1"
   inkscape:version="0.91 r13725"
   sodipodi:docname="main-logo.svg"><sodipodi:namedview
     pagecolor="#ffffff"
     bordercolor="#666666"
     borderopacity="1"
     objecttolerance="10"
     gridtolerance="10"
     guidetolerance="10"
     inkscape:pageopacity="0"
     inkscape:pageshadow="2"
     inkscape:window-width="1920"
     inkscape:window-height="1017"
     id="namedview12"
     showgrid="false"
     inkscape:zoom="1.8101934"
     inkscape:cx="199.93216"
     inkscape:cy="139.9196"
     inkscape:window-x="1352"
     inkscape:window-y="-8"
     inkscape:window-maximized="1"
     inkscape:current-layer="svg2" /><metadata
     id="metadata8"><rdf:RDF><cc:Work
         rdf:about=""><dc:format>image/svg+xml</dc:format><dc:type
           rdf:resource="http://purl.org/dc/dcmitype/StillImage" /><dc:title></dc:title></cc:Work></rdf:RDF></metadata><defs
     id="defs6"><clipPath
       id="clipPath18"
       clipPathUnits="userSpaceOnUse"><path
         id="path16"
         d="m 0,5867.721 4251.971,0 L 4251.971,0 0,0 Z"
         inkscape:connector-curvature="0" /></clipPath></defs><path
     id="path22"
     style="fill:#ffffff;fill-opacity:1;fill-rule:nonzero;stroke:none"
     d="m 70.522224,100.63164 20.02415,-53.696005 -9.453626,-26.3192 -30.85486,80.015205 c -0.02768,0.052 20.284336,0 20.284336,0 m 39.471866,0 -10.090514,-27.4002 -10.089814,27.4002 z m 19.29965,0 c 0,0 20.2921,0.052 20.27958,0 l -30.86244,-80.015205 -9.46121,26.3192 z M 62.769508,2.35e-4 l 29.34204,0 7.792028,20.9716 7.768584,-20.9716 29.55833,0 L 200,159.66004 l -27.24045,0 -16.46209,-42.5698 -20.88422,0 15.96147,42.5698 -19.99595,0 c -4.59081,-12.3436 -15.46136,-42.5258 -15.46136,-42.5258 l -32.039278,0 -15.469122,42.5258 -19.98008,0 15.961466,-42.5698 -20.772628,0 -16.581788,42.5698 -27.03597,0 z"
     inkscape:connector-curvature="0" /></svg>