<?xml version="1.0" encoding="UTF-8" standalone="no"?>
<svg
   xmlns:dc="http://purl.org/dc/elements/1.1/"
   xmlns:cc="http://creativecommons.org/ns#"
   xmlns:rdf="http://www.w3.org/1999/02/22-rdf-syntax-ns#"
   xmlns:svg="http://www.w3.org/2000/svg"
   xmlns="http://www.w3.org/2000/svg"
   xmlns:sodipodi="http://sodipodi.sourceforge.net/DTD/sodipodi-0.dtd"
   xmlns:inkscape="http://www.inkscape.org/namespaces/inkscape"
   viewBox="0 0 2000 1596.5981"
   height="1596.5981"
   width="2000"
   xml:space="preserve"
   id="svg2"
   version="1.1"
   inkscape:version="0.91 r13725"
   sodipodi:docname="main-logo.svg"><sodipodi:namedview
     pagecolor="#ffffff"
     bordercolor="#666666"
     borderopacity="0"
     objecttolerance="10"
     gridtolerance="10"
     guidetolerance="10"
     inkscape:pageopacity="0"
     inkscape:pageshadow="2"
     inkscape:window-width="1920"
     inkscape:window-height="1017"
     id="namedview12"
     showgrid="false"
     inkscape:zoom="0.32000001"
     inkscape:cx="662.122"
     inkscape:cy="998.59584"
     inkscape:window-x="-8"
     inkscape:window-y="-8"
     inkscape:window-maximized="1"
     inkscape:current-layer="svg2"
     units="mm"
     fit-margin-top="0"
     fit-margin-left="0"
     fit-margin-right="0"
     fit-margin-bottom="0" /><metadata
     id="metadata8"><rdf:RDF><cc:Work
         rdf:about=""><dc:format>image/svg+xml</dc:format><dc:type
           rdf:resource="http://purl.org/dc/dcmitype/StillImage" /><dc:title></dc:title></cc:Work></rdf:RDF></metadata><defs
     id="defs6"><clipPath
       id="clipPath18"
       clipPathUnits="userSpaceOnUse"><path
         id="path16"
         d="m 0,5867.721 4251.971,0 L 4251.971,0 0,0 Z"
         inkscape:connector-curvature="0" /></clipPath></defs><path
     inkscape:connector-curvature="0"
     d="M 705.22224,1006.3141 905.46374,469.354 810.92748,206.162 502.37888,1006.3141 c -0.2768,0.52 202.84336,0 202.84336,0 m 394.71866,0 L 999.03576,732.31205 898.13762,1006.3141 Z m 192.9965,0 c 0,0 202.921,0.52 202.7958,0 L 1187.1088,206.162 1092.4967,469.354 Z M 627.69508,0 921.11548,0 999.03576,209.716 1076.7216,0 1372.3049,0 2000,1596.5981 l -272.4045,0 -164.6209,-425.698 -208.8422,0 159.6147,425.698 -199.9595,0 c -45.9081,-123.436 -154.6136,-425.258 -154.6136,-425.258 l -320.39278,0 -154.69122,425.258 -199.8008,0 159.61466,-425.698 -207.72628,0 -165.81788,425.698 -270.3597,0 z"
     style="fill:#000000;fill-opacity:1;fill-rule:nonzero;stroke:none"
     id="path4139" /></svg>